<svg width="267" height="142" viewBox="0 0 267 142" fill="none" xmlns="http://www.w3.org/2000/svg">
<path d="M0 100.43H34.0699V110.12H22.5V141.55H11.63V110.12H0V100.43Z" fill="#221D19"/>
<path d="M39.5703 100.43H69.1803V109.83H50.4403V116.12H67.4203V125.46H50.4403V132.16H69.5303V141.56H39.5703V100.43Z" fill="#221D19"/>
<path d="M86.3893 141.55H73.6992L87.7992 120.17L74.5792 100.43H87.2693L94.7292 112.53L102.189 100.43H114.879L101.659 120.17L115.759 141.55H103.069L94.7292 127.75L86.3893 141.55Z" fill="#221D19"/>
<path d="M1 0H29.64C42.76 0 52.7199 3.48 59.5399 10.44C66.3499 17.4 69.76 26.67 69.76 38.26C69.76 49.85 66.3499 59.12 59.5399 66.08C52.7199 73.04 42.76 76.52 29.64 76.52H1V0ZM47.0699 56.07C51.0399 52.06 53.0299 46.12 53.0299 38.25C53.0299 30.38 51.0399 24.44 47.0699 20.43C43.0999 16.42 37.29 14.42 29.64 14.42H17.4V62.08H29.64C37.29 62.09 43.0999 60.08 47.0699 56.07Z" fill="#221D19"/>
<path d="M92.6393 31.9204C94.6093 28.8604 97.4492 26.4904 101.169 24.8104C104.889 23.1404 109.109 22.5204 113.849 22.9504V37.7104C109.699 36.9804 105.819 37.3504 102.209 38.8004C98.5992 40.2604 95.9993 42.5505 94.3893 45.6905V76.5204H79.1992V24.0504H92.6493V31.9204H92.6393Z" fill="#221D19"/>
<path d="M125.689 70.72C120.079 65.84 117.27 59.02 117.27 50.28C117.27 41.54 120.069 34.72 125.689 29.84C131.299 24.96 138.15 22.52 146.24 22.52C154.4 22.52 161.269 24.96 166.849 29.84C172.419 34.72 175.209 41.54 175.209 50.28C175.209 59.02 172.419 65.84 166.849 70.72C161.269 75.6 154.41 78.0399 146.24 78.0399C138.15 78.0499 131.299 75.61 125.689 70.72ZM140.39 4.36996C141.96 5.96996 142.74 7.90997 142.74 10.16C142.74 12.42 141.96 14.33 140.39 15.9C138.82 17.47 136.91 18.25 134.65 18.25C132.39 18.25 130.459 17.47 128.859 15.9C127.259 14.33 126.449 12.42 126.449 10.16C126.449 7.89997 127.249 5.96996 128.859 4.36996C130.459 2.76996 132.39 1.95996 134.65 1.95996C136.91 1.96996 138.82 2.76996 140.39 4.36996ZM156.179 60.5C158.589 57.84 159.789 54.43 159.789 50.28C159.789 46.13 158.589 42.72 156.179 40.06C153.779 37.4 150.459 36.0699 146.229 36.0699C141.999 36.0699 138.699 37.4 136.339 40.06C133.969 42.72 132.789 46.13 132.789 50.28C132.789 54.43 133.969 57.84 136.339 60.5C138.709 63.16 142.009 64.49 146.229 64.49C150.459 64.49 153.779 63.16 156.179 60.5ZM163.779 4.36996C165.349 5.96996 166.13 7.90997 166.13 10.16C166.13 12.42 165.349 14.33 163.779 15.9C162.209 17.47 160.299 18.25 158.039 18.25C155.779 18.25 153.85 17.47 152.25 15.9C150.65 14.33 149.839 12.42 149.839 10.16C149.839 7.89997 150.64 5.96996 152.25 4.36996C153.85 2.76996 155.779 1.95996 158.039 1.95996C160.299 1.96996 162.209 2.76996 163.779 4.36996Z" fill="#221D19"/>
<path d="M198.59 76.5195H183.4V24.0495H196.85V30.1695C198.53 28.1995 200.82 26.4395 203.74 24.8695C206.65 23.2995 209.93 22.5195 213.58 22.5195C220.79 22.5195 226.15 25.1095 229.65 30.2795C234.97 25.1095 240.8 22.5195 247.14 22.5195C253.84 22.5195 258.78 24.6195 261.95 28.8095C265.12 32.9995 266.71 37.8295 266.71 43.2895V76.5195H251.63V44.2695C251.63 41.5695 250.88 39.4595 249.39 37.9295C247.9 36.3995 245.91 35.6395 243.43 35.6395C239.57 35.6395 236.11 37.3895 233.05 40.8895C233.12 41.3995 233.16 42.1995 233.16 43.2895V76.5195H218.08V44.2695C218.08 41.5695 217.33 39.4595 215.84 37.9295C214.35 36.3995 212.36 35.6395 209.88 35.6395C205.58 35.6395 201.83 37.7495 198.62 41.9795V76.5195H198.59Z" fill="#221D19"/>
</svg>
