<svg width="252" height="48" viewBox="0 0 252 48" fill="none" xmlns="http://www.w3.org/2000/svg">
<path d="M179.859 21.7686H201.179V26.6464H193.263V47.0562H187.775V26.6464H179.859V21.7686Z" fill="#221D19"/>
<path d="M204.865 21.7686H223.021V26.5384H210.388V31.9223H221.914V36.6524H210.388V42.2864H223.241V47.0562H204.865V21.7686Z" fill="#221D19"/>
<path d="M232.524 47.0619H226.08L235.323 33.9462L226.631 21.7686H233.075L238.783 30.0803L244.456 21.7686H250.935L242.242 33.9462L251.485 47.0619H245.006L238.783 37.8519L232.524 47.0619Z" fill="#221D19"/>
<path d="M0 0H17.9528C26.1759 0 32.4229 2.14332 36.6937 6.41858C40.9646 10.6995 43.103 16.4018 43.103 23.531C43.103 30.6545 40.9646 36.3624 36.6937 40.6377C32.4229 44.9186 26.1759 47.0563 17.9528 47.0563H0V0ZM28.8821 34.4863C31.3739 32.0246 32.6141 28.3691 32.6141 23.5253C32.6141 18.6872 31.3681 15.0316 28.8821 12.5643C26.3903 10.1026 22.751 8.86889 17.9528 8.86889H10.2803V38.1817H17.9528C22.751 38.1874 26.3903 36.9537 28.8821 34.4863Z" fill="#221D19"/>
<path d="M57.4512 19.6304C58.6855 17.7486 60.4646 16.2932 62.7942 15.2585C65.1238 14.2295 67.772 13.8486 70.7449 14.1158V23.1894C68.1429 22.7402 65.7091 22.9676 63.449 23.8602C61.189 24.7585 59.5548 26.1684 58.5465 28.0957V47.0558H49.0195V14.7867H57.4512V19.6304Z" fill="#221D19"/>
<path d="M78.1679 43.4973C74.6503 40.4956 72.8887 36.3056 72.8887 30.9274C72.8887 25.5492 74.6445 21.3592 78.1679 18.3575C81.6854 15.3557 85.9795 13.8548 91.0501 13.8548C96.1671 13.8548 100.473 15.3557 103.967 18.3575C107.461 21.3592 109.212 25.5492 109.212 30.9274C109.212 36.3056 107.467 40.4956 103.967 43.4973C100.473 46.4991 96.1671 48 91.0501 48C85.9795 48 81.6854 46.4991 78.1679 43.4973ZM87.3819 2.68909C88.3612 3.67263 88.8538 4.86082 88.8538 6.25369C88.8538 7.64088 88.3612 8.81771 87.3819 9.78419C86.3968 10.7507 85.1972 11.2282 83.7832 11.2282C82.3634 11.2282 81.1523 10.745 80.1498 9.78419C79.1415 8.82339 78.6431 7.64656 78.6431 6.25369C78.6431 4.86651 79.1473 3.67831 80.1498 2.68909C81.1523 1.70555 82.3634 1.21094 83.7832 1.21094C85.203 1.21094 86.4025 1.70555 87.3819 2.68909ZM97.2855 37.2095C98.7922 35.5722 99.5455 33.48 99.5455 30.9217C99.5455 28.3634 98.7922 26.2712 97.2855 24.6339C95.7788 22.9966 93.6984 22.1779 91.0501 22.1779C88.4018 22.1779 86.333 22.9966 84.8495 24.6339C83.366 26.2712 82.6242 28.3634 82.6242 30.9217C82.6242 33.48 83.366 35.5722 84.8495 37.2095C86.333 38.8469 88.4018 39.6655 91.0501 39.6655C93.6984 39.6655 95.7788 38.8469 97.2855 37.2095ZM102.049 2.68909C103.028 3.67263 103.521 4.86082 103.521 6.25369C103.521 7.64088 103.028 8.81771 102.049 9.78419C101.064 10.7507 99.8642 11.2282 98.4503 11.2282C97.0363 11.2282 95.8252 10.745 94.8169 9.78419C93.8143 8.82339 93.3101 7.64656 93.3101 6.25369C93.3101 4.86651 93.8143 3.67831 94.8169 2.68909C95.8194 1.70555 97.0305 1.21094 98.4503 1.21094C99.8642 1.21094 101.064 1.70555 102.049 2.68909Z" fill="#221D19"/>
<path d="M123.867 47.0624H114.34V14.7933H122.772V18.5569C123.82 17.346 125.263 16.2601 127.089 15.2936C128.914 14.3328 130.971 13.8496 133.255 13.8496C137.775 13.8496 141.136 15.4415 143.326 18.6252C146.658 15.4415 150.315 13.8496 154.29 13.8496C158.492 13.8496 161.586 15.1401 163.574 17.7155C165.562 20.2909 166.553 23.2643 166.553 26.6242V47.0624H157.095V27.2325C157.095 25.5724 156.626 24.2762 155.693 23.3325C154.754 22.3888 153.508 21.9226 151.961 21.9226C149.538 21.9226 147.371 22.9971 145.453 25.1517C145.499 25.4644 145.523 25.959 145.523 26.6299V47.0681H136.065V27.2382C136.065 25.5781 135.596 24.2819 134.663 23.3382C133.724 22.3944 132.478 21.9283 130.931 21.9283C128.236 21.9283 125.883 23.2301 123.873 25.8283V47.0624H123.867Z" fill="#221D19"/>
<path d="M179.527 21.7686H200.888V27.7323H193.632V47.0619H186.817V27.7323H179.527V21.7686Z" fill="#221D19"/>
<path d="M204.283 21.7686H222.845V27.5504H211.098V31.4163H221.738V37.1583H211.098V41.2744H223.065V47.0562H204.283V21.7686Z" fill="#221D19"/>
<path d="M233.589 47.0621H225.633L234.47 33.9123L226.183 21.7744H234.14L238.816 29.2163L243.493 21.7744H251.449L243.163 33.9123L252 47.0621H244.043L238.816 38.5741L233.589 47.0621Z" fill="#221D19"/>
<path d="M0 0H17.9528C26.1759 0 32.4229 2.14332 36.6937 6.41858C40.9646 10.6995 43.103 16.4018 43.103 23.531C43.103 30.6545 40.9646 36.3624 36.6937 40.6377C32.4229 44.9186 26.1759 47.0563 17.9528 47.0563H0V0ZM28.8821 34.4863C31.3739 32.0246 32.6141 28.3691 32.6141 23.5253C32.6141 18.6872 31.3681 15.0316 28.8821 12.5643C26.3903 10.1026 22.751 8.86889 17.9528 8.86889H10.2803V38.1817H17.9528C22.751 38.1874 26.3903 36.9537 28.8821 34.4863Z" fill="#221D19"/>
<path d="M57.4512 19.6304C58.6855 17.7486 60.4646 16.2932 62.7942 15.2585C65.1238 14.2295 67.772 13.8486 70.7449 14.1158V23.1894C68.1429 22.7402 65.7091 22.9676 63.449 23.8602C61.189 24.7585 59.5548 26.1684 58.5465 28.0957V47.0558H49.0195V14.7867H57.4512V19.6304Z" fill="#221D19"/>
<path d="M78.1679 43.4973C74.6503 40.4956 72.8887 36.3056 72.8887 30.9274C72.8887 25.5492 74.6445 21.3592 78.1679 18.3575C81.6854 15.3557 85.9795 13.8548 91.0501 13.8548C96.1671 13.8548 100.473 15.3557 103.967 18.3575C107.461 21.3592 109.212 25.5492 109.212 30.9274C109.212 36.3056 107.467 40.4956 103.967 43.4973C100.473 46.4991 96.1671 48 91.0501 48C85.9795 48 81.6854 46.4991 78.1679 43.4973ZM87.3819 2.68909C88.3612 3.67263 88.8538 4.86082 88.8538 6.25369C88.8538 7.64088 88.3612 8.81771 87.3819 9.78419C86.3968 10.7507 85.1972 11.2282 83.7832 11.2282C82.3634 11.2282 81.1523 10.745 80.1498 9.78419C79.1415 8.82339 78.6431 7.64656 78.6431 6.25369C78.6431 4.86651 79.1473 3.67831 80.1498 2.68909C81.1523 1.70555 82.3634 1.21094 83.7832 1.21094C85.203 1.21094 86.4025 1.70555 87.3819 2.68909ZM97.2855 37.2095C98.7922 35.5722 99.5455 33.48 99.5455 30.9217C99.5455 28.3634 98.7922 26.2712 97.2855 24.6339C95.7788 22.9966 93.6984 22.1779 91.0501 22.1779C88.4018 22.1779 86.333 22.9966 84.8495 24.6339C83.366 26.2712 82.6242 28.3634 82.6242 30.9217C82.6242 33.48 83.366 35.5722 84.8495 37.2095C86.333 38.8469 88.4018 39.6655 91.0501 39.6655C93.6984 39.6655 95.7788 38.8469 97.2855 37.2095ZM102.049 2.68909C103.028 3.67263 103.521 4.86082 103.521 6.25369C103.521 7.64088 103.028 8.81771 102.049 9.78419C101.064 10.7507 99.8642 11.2282 98.4503 11.2282C97.0363 11.2282 95.8252 10.745 94.8169 9.78419C93.8143 8.82339 93.3101 7.64656 93.3101 6.25369C93.3101 4.86651 93.8143 3.67831 94.8169 2.68909C95.8194 1.70555 97.0305 1.21094 98.4503 1.21094C99.8642 1.21094 101.064 1.70555 102.049 2.68909Z" fill="#221D19"/>
<path d="M123.867 47.0624H114.34V14.7933H122.772V18.5569C123.82 17.346 125.263 16.2601 127.089 15.2936C128.914 14.3328 130.971 13.8496 133.255 13.8496C137.775 13.8496 141.136 15.4415 143.326 18.6252C146.658 15.4415 150.315 13.8496 154.29 13.8496C158.492 13.8496 161.586 15.1401 163.574 17.7155C165.562 20.2909 166.553 23.2643 166.553 26.6242V47.0624H157.095V27.2325C157.095 25.5724 156.626 24.2762 155.693 23.3325C154.754 22.3888 153.508 21.9226 151.961 21.9226C149.538 21.9226 147.371 22.9971 145.453 25.1517C145.499 25.4644 145.523 25.959 145.523 26.6299V47.0681H136.065V27.2382C136.065 25.5781 135.596 24.2819 134.663 23.3382C133.724 22.3944 132.478 21.9283 130.931 21.9283C128.236 21.9283 125.883 23.2301 123.873 25.8283V47.0624H123.867Z" fill="#221D19"/>
</svg>
