<svg width="24" height="24" viewBox="0 0 24 24" fill="none" xmlns="http://www.w3.org/2000/svg">
<path d="M21.0004 4.7998L19.1337 6.1998C18.7875 6.45945 18.3665 6.5998 17.9337 6.5998H13.7704C13.0533 6.5998 12.3978 7.00493 12.0772 7.64628V7.64628C11.6814 8.43774 11.8868 9.39774 12.5716 9.95807L15.4764 12.3347C17.0503 13.6225 17.8648 15.6198 17.6403 17.641L17.5203 18.7205C17.4407 19.4367 17.2647 20.139 16.9971 20.8081L16.2004 22.7998" stroke="#0C0C0C"/>
<path d="M0.599609 10.2L5.03771 9.46032C6.39135 9.23471 7.5649 10.4083 7.33929 11.7619L7.08529 13.2859C6.79661 15.018 7.67422 16.7373 9.24485 17.5226V17.5226C10.5025 18.1514 11.157 19.5705 10.8159 20.9347L10.1996 23.4" stroke="#0C0C0C"/>
<circle cx="12" cy="12" r="11.5" stroke="#0C0C0C"/>
</svg>
